<?xml version="1.0" standalone="no"?>
<!DOCTYPE svg PUBLIC "-//W3C//DTD SVG 20010904//EN"
 "http://www.w3.org/TR/2001/REC-SVG-20010904/DTD/svg10.dtd">
<svg version="1.0" xmlns="http://www.w3.org/2000/svg"
 width="512.000000pt" height="512.000000pt" viewBox="0 0 512.000000 512.000000"
 preserveAspectRatio="xMidYMid meet">
<metadata>
Created by potrace 1.10, written by Peter Selinger 2001-2011
</metadata>
<g transform="translate(0.000000,512.000000) scale(0.100000,-0.100000)"
fill="#000000" stroke="none">
<path d="M2595 5109 c-532 -61 -950 -277 -1280 -661 -300 -349 -533 -869 -619
-1383 -31 -183 -31 -213 -6 -240 27 -28 56 -32 87 -10 12 8 40 62 66 127 160
401 361 758 571 1018 80 99 273 293 362 363 223 175 467 291 729 347 128 28
424 38 558 20 213 -28 399 -80 580 -161 60 -27 115 -49 122 -49 23 0 65 41 65
65 0 99 -164 303 -317 394 -236 140 -598 207 -918 170z m340 -139 c197 -23
345 -65 475 -137 63 -34 155 -102 148 -109 -2 -2 -46 10 -98 27 -237 74 -519
108 -743 89 -679 -58 -1231 -440 -1663 -1153 -41 -67 -74 -116 -74 -110 0 19
80 204 142 328 240 480 608 820 1053 972 241 82 536 118 760 93z"/>
<path d="M2470 4344 c-95 -15 -145 -31 -219 -66 -114 -54 -229 -168 -282 -278
-119 -245 -81 -516 98 -710 80 -87 165 -143 268 -177 68 -23 97 -27 195 -27
98 0 127 5 196 27 164 54 295 168 369 322 51 107 65 166 65 283 0 174 -57 310
-184 438 -118 119 -245 176 -416 188 -36 2 -76 2 -90 0z"/>
<path d="M2890 2968 c-217 -90 -400 -133 -653 -151 l-162 -12 -3 -865 c-2
-555 1 -893 8 -944 13 -100 46 -172 109 -239 57 -60 128 -103 205 -123 60 -16
202 -18 265 -3 161 37 289 171 321 334 8 43 10 343 8 1051 l-3 992 -95 -40z"/>
</g>
</svg>
