<?xml version="1.0" standalone="no"?>
<!DOCTYPE svg PUBLIC "-//W3C//DTD SVG 20010904//EN"
 "http://www.w3.org/TR/2001/REC-SVG-20010904/DTD/svg10.dtd">
<svg version="1.0" xmlns="http://www.w3.org/2000/svg"
 width="300.000000pt" height="300.000000pt" viewBox="0 0 300.000000 300.000000"
 preserveAspectRatio="xMidYMid meet">
<metadata>
Created by potrace 1.10, written by Peter Selinger 2001-2011
</metadata>
<g transform="translate(0.000000,300.000000) scale(0.100000,-0.100000)"
fill="#000000" stroke="none">
<path d="M1588 2970 c-123 -26 -208 -55 -318 -110 -283 -142 -495 -378 -650
-720 -82 -184 -153 -438 -167 -602 -6 -65 -5 -67 21 -79 23 -11 29 -10 45 7
10 10 28 46 41 79 40 104 164 356 225 455 88 145 158 235 279 356 169 170 343
274 551 331 91 25 116 27 275 28 226 0 344 -24 543 -111 87 -38 117 -35 117
12 0 34 -43 117 -87 165 -110 122 -329 209 -523 209 -95 -1 -92 -13 5 -25 88
-11 85 -11 150 -25 33 -7 74 -19 92 -26 17 -8 36 -14 41 -14 15 0 130 -67 173
-101 44 -34 119 -142 119 -170 0 -24 -21 -24 -71 1 -66 34 -243 89 -342 106
-70 12 -131 15 -252 11 -196 -6 -297 -31 -460 -112 -348 -173 -646 -542 -852
-1056 -57 -143 -80 -112 -47 62 91 489 319 883 634 1101 163 113 386 196 572
214 40 4 91 12 113 19 39 13 37 13 -50 13 -50 0 -129 -8 -177 -18z"/>
<path d="M1690 2924 c-431 -55 -763 -308 -984 -751 -43 -87 -86 -211 -79 -229
12 -32 38 -7 118 116 93 143 153 219 254 324 341 353 785 477 1251 350 117
-32 130 -33 143 -12 17 27 -43 82 -138 128 -92 44 -165 65 -286 80 -98 12
-146 11 -279 -6z m369 -41 c99 -20 190 -54 255 -98 83 -55 86 -66 11 -39 -181
66 -459 88 -645 51 -402 -79 -749 -353 -996 -786 -24 -42 -44 -72 -44 -68 0
16 83 204 123 277 191 351 458 569 800 650 171 41 339 45 496 13z"/>
<path d="M1558 2465 c-77 -25 -167 -93 -215 -163 -57 -84 -76 -151 -71 -261 3
-77 7 -96 41 -163 106 -214 353 -296 568 -187 117 59 197 171 221 308 30 178
-62 356 -229 438 -69 34 -84 38 -172 40 -65 2 -111 -2 -143 -12z m245 -32
c221 -76 327 -289 252 -508 -60 -177 -269 -288 -453 -241 -128 32 -210 96
-269 208 -26 49 -28 62 -28 163 0 85 4 121 19 160 22 57 101 145 161 181 87
51 230 67 318 37z"/>
<path d="M1908 1559 c-128 -56 -337 -99 -475 -99 l-53 0 0 -595 c0 -390 4
-611 11 -645 24 -112 132 -211 229 -209 49 0 48 1 -44 36 -26 10 -68 37 -92
59 -75 73 -74 65 -74 734 l0 587 108 6 c59 4 134 14 167 22 33 9 73 18 88 21
16 3 61 19 100 35 40 16 75 29 80 29 4 0 7 -296 7 -657 l0 -658 -24 -51 c-28
-61 -83 -108 -151 -130 -67 -22 -78 -34 -30 -34 54 0 118 34 164 86 73 84 71
57 71 816 0 373 -3 678 -7 677 -5 -1 -38 -14 -75 -30z"/>
<path d="M319 393 c-13 -16 -12 -17 4 -4 9 7 17 15 17 17 0 8 -8 3 -21 -13z"/>
</g>
</svg>
