 <svg version="1.0" xmlns="http://www.w3.org/2000/svg"  width="90.000000pt" height="90.000000pt" viewBox="0 0 90.000000 90.000000"  preserveAspectRatio="xMidYMid meet">  <g transform="translate(0.000000,90.000000) scale(0.100000,-0.100000)" fill="#ffffff" stroke="none"> <path d="M440 880 c0 -16 -7 -20 -34 -20 -18 0 -39 -7 -46 -15 -7 -8 -17 -15 -22 -15 -12 0 -108 -96 -108 -108 0 -6 -7 -12 -15 -16 -8 -3 -15 -15 -15 -26 0 -11 -7 -23 -15 -26 -8 -4 -15 -18 -15 -33 0 -15 -5 -32 -12 -39 -6 -6 -14 -30 -19 -54 -4 -24 -11 -54 -15 -66 -6 -21 -4 -23 17 -20 17 2 25 11 30 33 3 17 16 46 27 65 12 19 26 45 32 58 5 12 14 22 20 22 5 0 10 5 10 10 0 10 42 54 107 113 17 15 40 27 51 27 11 0 22 7 26 15 8 21 212 21 240 0 22 -16 62 -20 70 -7 9 14 -54 82 -75 82 -11 0 -27 -7 -35 -15 -12 -11 -39 -15 -110 -15 -77 0 -94 -3 -94 -15 0 -10 -10 -15 -29 -15 -16 0 -31 -6 -35 -15 -3 -8 -11 -15 -18 -15 -8 0 -28 -13 -46 -30 -37 -33 -52 -38 -52 -15 0 8 7 15 15 15 8 0 15 7 15 15 0 8 7 15 15 15 8 0 15 7 15 15 0 8 8 15 19 15 10 0 24 7 31 15 7 8 23 15 37 15 13 0 26 7 29 15 5 12 26 15 105 15 92 0 99 1 99 20 0 19 -7 20 -100 20 -93 0 -100 -1 -100 -20z m-182 -191 c-2 -6 -8 -10 -13 -10 -5 0 -11 4 -13 10 -2 6 4 11 13 11 9 0 15 -5 13 -11z"></path> <path d="M440 719 c-14 -12 -33 -27 -44 -34 -28 -21 -27 -127 3 -159 79 -84 221 -32 221 81 0 98 -112 168 -180 112z"></path> <path d="M554 456 c-11 -8 -46 -16 -79 -19 -33 -3 -61 -6 -62 -6 -2 -1 -3 -90 -3 -199 0 -186 1 -199 20 -215 31 -27 111 -23 138 6 21 22 22 32 22 230 0 113 -4 208 -8 211 -5 3 -17 -1 -28 -8z"></path> </g> </svg> 