<?xml version="1.0" standalone="no"?>
<!DOCTYPE svg PUBLIC "-//W3C//DTD SVG 20010904//EN"
 "http://www.w3.org/TR/2001/REC-SVG-20010904/DTD/svg10.dtd">
<svg version="1.0" xmlns="http://www.w3.org/2000/svg"
 width="900.000000pt" height="900.000000pt" viewBox="0 0 900.000000 900.000000"
 preserveAspectRatio="xMidYMid meet">
<metadata>
Created by potrace 1.10, written by Peter Selinger 2001-2011
</metadata>
<g transform="translate(0.000000,900.000000) scale(0.100000,-0.100000)"
fill="#000000" stroke="none">
<path d="M5263 8988 c1 -9 -25 -15 -88 -21 -214 -18 -558 -84 -740 -142 -22
-7 -67 -20 -100 -30 -33 -10 -78 -24 -100 -32 -22 -9 -56 -21 -75 -28 -172
-63 -479 -211 -595 -285 -16 -11 -37 -23 -45 -27 -31 -15 -200 -130 -295 -201
-167 -126 -367 -309 -534 -492 -122 -134 -133 -147 -255 -311 -153 -206 -165
-223 -284 -419 -129 -211 -339 -649 -438 -912 -8 -21 -21 -57 -30 -80 -34 -90
-43 -116 -74 -218 -17 -58 -38 -120 -46 -138 -8 -18 -14 -42 -14 -53 0 -11 -5
-29 -10 -40 -6 -10 -15 -38 -20 -61 -5 -24 -20 -83 -33 -133 -13 -49 -31 -126
-41 -170 -10 -44 -22 -98 -28 -120 -6 -22 -14 -65 -18 -95 -4 -30 -12 -80 -18
-110 -32 -168 -44 -257 -45 -342 -2 -90 0 -98 23 -123 51 -55 110 -69 169 -39
32 16 81 78 81 102 0 8 6 26 14 40 8 15 21 45 29 67 47 125 91 232 136 327 17
37 31 71 31 75 0 4 10 27 21 52 80 172 108 231 165 346 90 183 174 340 241
450 7 11 16 27 20 35 39 80 244 400 320 501 23 31 59 81 80 111 63 91 245 315
343 422 167 183 405 404 564 526 111 84 281 205 311 220 11 5 27 14 35 20 76
50 328 180 455 235 136 58 179 75 191 75 7 0 28 6 46 14 119 50 410 117 663
152 169 23 653 23 815 0 178 -26 299 -46 365 -61 33 -8 71 -16 85 -18 35 -6
253 -65 282 -76 12 -4 48 -16 78 -26 30 -9 72 -23 93 -31 87 -33 124 -47 162
-62 36 -14 82 -34 256 -116 30 -14 69 -28 85 -32 36 -7 91 16 124 51 21 23 25
36 24 88 0 51 -7 76 -38 137 -20 41 -46 89 -56 105 -11 17 -25 40 -32 52 -43
73 -98 142 -185 230 -110 113 -192 178 -328 260 -43 26 -284 143 -294 143 -6
0 -25 6 -43 14 -74 32 -149 56 -278 90 -52 14 -94 23 -280 60 -41 8 -115 18
-163 21 -62 5 -90 11 -94 21 -7 19 -594 21 -590 2z m477 -288 c304 -24 604
-82 758 -146 18 -8 37 -14 43 -14 6 0 27 -7 47 -16 21 -9 51 -22 67 -29 163
-68 396 -219 444 -287 14 -20 13 -21 -10 -14 -13 4 -37 11 -54 16 -16 5 -61
19 -100 33 -38 13 -99 32 -135 42 -36 9 -85 23 -110 30 -94 26 -307 67 -460
89 -249 36 -652 50 -805 27 -38 -6 -94 -11 -124 -11 -57 0 -193 -21 -298 -46
-34 -7 -71 -14 -84 -14 -12 0 -45 -6 -73 -14 -28 -8 -80 -22 -116 -31 -36 -10
-81 -23 -100 -30 -19 -7 -66 -23 -105 -35 -369 -114 -811 -357 -1163 -638
-106 -85 -115 -93 -208 -176 -252 -225 -513 -519 -747 -841 -80 -109 -264
-385 -284 -425 -4 -8 -18 -31 -31 -50 -13 -19 -28 -44 -33 -55 -5 -11 -18 -33
-29 -50 -11 -16 -24 -40 -29 -52 -5 -11 -15 -24 -20 -28 -17 -10 -13 39 5 82
26 60 41 95 60 143 36 92 71 169 151 330 157 314 230 436 419 705 219 313 564
659 862 868 115 80 150 103 172 114 8 4 33 19 55 33 67 42 78 49 130 75 28 14
57 30 65 35 14 9 43 22 201 94 59 27 103 43 214 81 39 13 81 28 95 33 120 46
447 117 675 146 254 33 456 41 655 26z"/>
<path d="M4895 7434 c-140 -15 -371 -96 -500 -177 -167 -104 -322 -256 -413
-405 -39 -64 -117 -234 -134 -292 -52 -173 -52 -178 -52 -385 1 -172 4 -211
22 -279 82 -302 211 -509 430 -691 90 -75 110 -88 222 -148 122 -66 207 -94
380 -127 235 -44 504 -7 740 104 330 154 572 437 676 791 67 227 69 440 7 680
-49 190 -160 387 -306 541 -176 186 -368 297 -634 365 -77 19 -340 33 -438 23z"/>
<path d="M5900 4745 c-32 -17 -118 -54 -220 -96 -63 -26 -230 -86 -275 -99
-141 -42 -175 -51 -210 -59 -22 -5 -83 -19 -135 -31 -213 -48 -342 -63 -682
-81 l-238 -13 0 -1805 c0 -1891 0 -1867 41 -1991 92 -278 338 -500 619 -560
66 -14 475 -8 535 8 61 16 171 60 210 84 119 75 231 183 291 282 42 70 94 182
94 204 0 9 7 35 15 57 12 34 14 329 15 2078 0 1934 -1 2037 -17 2036 -10 0
-29 -7 -43 -14z"/>
</g>
</svg>
