<?xml version="1.0" standalone="no"?>
<!DOCTYPE svg PUBLIC "-//W3C//DTD SVG 20010904//EN"
 "http://www.w3.org/TR/2001/REC-SVG-20010904/DTD/svg10.dtd">
<svg version="1.0" xmlns="http://www.w3.org/2000/svg"
 width="30.000000pt" height="30.000000pt" viewBox="0 0 30.000000 30.000000"
 preserveAspectRatio="xMidYMid meet">
<metadata>
Created by potrace 1.10, written by Peter Selinger 2001-2011
</metadata>
<g transform="translate(0.000000,30.000000) scale(0.100000,-0.100000)"
fill="#ffffff" stroke="none">
<path d="M140 293 c-20 -8 -60 -44 -72 -67 -15 -28 -28 -76 -20 -76 12 0 32
52 25 64 -3 6 -3 8 2 4 4 -4 24 6 43 23 33 29 39 31 91 26 l56 -6 -24 20 c-22
18 -69 24 -101 12z m42 -12 c-23 -4 -56 -18 -74 -31 -17 -12 -27 -17 -23 -11
15 25 71 51 105 50 34 -1 34 -2 -8 -8z"/>
<path d="M142 238 c-34 -34 6 -90 48 -68 35 19 20 80 -20 80 -9 0 -21 -5 -28
-12z"/>
<path d="M167 152 l-28 -3 3 -72 c3 -66 5 -72 26 -75 29 -4 34 11 30 89 -3 64
-3 64 -31 61z"/>
</g>
</svg>
